<svg width="18" height="18" viewBox="0 0 18 18" fill="none" xmlns="http://www.w3.org/2000/svg">
<path d="M9.9375 9L7.77937 6.65062C7.59562 6.465 7.59562 6.16406 7.77937 5.9775C7.96312 5.79281 8.26219 5.79281 8.445 5.9775L11.0766 8.6625C11.2603 8.84906 11.2603 9.15 11.0766 9.33469L8.445 12.0197C8.26219 12.2062 7.96312 12.2053 7.77937 12.0197C7.59562 11.835 7.59562 11.5341 7.77937 11.3475L9.9375 9ZM9 0C13.9706 0 18 4.02938 18 9C18 13.9716 13.9706 18 9 18C4.02938 18 0 13.9716 0 9C0 4.02938 4.02938 0 9 0ZM9 16.8319C13.3247 16.8319 16.8319 13.3256 16.8319 9C16.8319 4.67438 13.3247 1.16813 9 1.16813C4.67344 1.16813 1.16813 4.67438 1.16813 9C1.16719 13.3256 4.67344 16.8319 9 16.8319Z" fill="#7BB058"/>
</svg>
