<svg width="60" height="60" viewBox="0 0 60 60" fill="none" xmlns="http://www.w3.org/2000/svg">
<circle cx="30" cy="30" r="29.5" transform="rotate(180 30 30)" fill="#F7F7F7"/>
<circle cx="30" cy="30" r="29.5" transform="rotate(180 30 30)" stroke="#CCCCCC"/>
<circle cx="30" cy="30" r="29.5" transform="rotate(180 30 30)" stroke="url(#paint0_linear_15_101)"/>
<path d="M29.5652 12.4457C39.0039 12.4457 46.6848 20.1265 46.6848 29.5652C46.6848 39.0039 39.0039 46.6848 29.5652 46.6848C20.1265 46.6848 12.4457 39.0039 12.4457 29.5652C12.4457 20.1265 20.1265 12.4457 29.5652 12.4457ZM29.5652 10C18.7604 10 10 18.7604 10 29.5652C10 40.37 18.7604 49.1304 29.5652 49.1304C40.37 49.1304 49.1304 40.37 49.1304 29.5652C49.1304 18.7604 40.37 10 29.5652 10ZM40.4727 36.1069L40.3629 35.7725C40.1049 35.0035 39.2547 34.201 38.4713 33.986L35.5791 33.1955C34.7957 32.9829 33.678 33.2695 33.1025 33.8451L32.0563 34.8912C28.2541 33.8618 25.2711 30.8788 24.2441 27.0766L25.2902 26.0305C25.8634 25.4573 26.15 24.3395 25.9375 23.5538L25.1492 20.6615C24.9367 19.8781 24.1294 19.0279 23.3604 18.77L23.0307 18.6601C22.2593 18.4021 21.1583 18.6624 20.5851 19.2381L19.0183 20.8048C18.7389 21.0819 18.5598 21.8772 18.5598 21.8796C18.5072 26.8521 20.4562 31.6407 23.9718 35.1587C27.4779 38.6648 32.2498 40.6114 37.2055 40.5683C37.2318 40.5683 38.051 40.394 38.3304 40.1145L39.8972 38.5477C40.4704 37.9769 40.7282 36.8759 40.4727 36.1069Z" fill="#FCA940"/>
<defs>
<linearGradient id="paint0_linear_15_101" x1="30" y1="30" x2="30" y2="60" gradientUnits="userSpaceOnUse">
<stop stop-color="#F7F7F7"/>
<stop offset="1" stop-color="white" stop-opacity="0"/>
</linearGradient>
</defs>
</svg>
