<svg width="42" height="42" viewBox="0 0 42 42" fill="none" xmlns="http://www.w3.org/2000/svg">
<rect width="42" height="42" rx="5" fill="#E6BC5E"/>
<path d="M30.7172 11.3984C28.1053 8.79947 24.7678 7.5 21.1401 7.5C13.7396 7.5 7.64511 13.4198 7.64511 20.9278C7.64511 23.238 8.22554 25.6925 9.3864 27.7139L7.5 34.5L14.6103 32.7674C16.4967 33.9225 18.8184 34.3556 20.995 34.3556C28.3955 34.3556 34.49 28.4358 34.49 20.9278C34.6352 17.4626 33.1841 13.9973 30.7172 11.3984ZM21.1401 32.1898C19.1086 32.1898 17.0771 31.6123 15.3358 30.6016L15.0456 30.3128L10.6924 31.4679L11.8532 27.4251L11.563 27.1364C10.5473 25.2594 9.96683 23.238 9.96683 21.0722C9.82172 15.008 14.9005 9.81016 21.1401 9.81016C24.1874 9.81016 26.9444 10.9652 29.1211 13.131C31.1526 15.1524 32.4585 18.0401 32.4585 21.0722C32.4585 27.1364 27.3798 32.1898 21.1401 32.1898ZM27.3798 23.8155C27.0896 23.6711 25.3483 22.8048 25.058 22.6604C24.7678 22.516 24.4776 22.516 24.3325 22.8048C24.0423 23.0936 23.4619 23.9599 23.1716 24.1043C22.8814 24.393 22.8814 24.393 22.4461 24.2487C22.0108 24.1043 21.1401 23.6711 19.6891 22.516C18.6733 21.6497 17.9478 20.4947 17.8027 20.2059C17.5124 19.9171 17.8027 19.6283 17.9478 19.484C18.0929 19.3396 18.238 19.1952 18.5282 18.9064C18.6733 18.762 18.8184 18.6176 18.8184 18.4733C18.9635 18.1845 18.9635 18.1845 18.8184 17.8957C18.8184 17.607 18.0929 16.0187 17.8027 15.2968C17.5124 14.7193 17.2222 14.7193 17.0771 14.7193C16.7869 14.7193 16.7869 14.7193 16.4967 14.7193C16.2065 14.7193 15.7711 14.8636 15.4809 15.1524C15.1907 15.4412 14.3201 16.3075 14.3201 18.0401C14.3201 19.7727 15.626 21.361 15.626 21.5053C15.7711 21.7941 17.9478 25.115 21.4304 26.5588C22.1559 26.8476 22.8814 27.1364 23.3168 27.2808C24.0423 27.5695 24.9129 27.5695 25.3483 27.4251C25.9287 27.2808 27.3798 26.5588 27.67 25.8369C27.9602 25.115 27.9602 24.393 27.9602 24.2487C27.8151 24.1043 27.5249 23.9599 27.3798 23.8155Z" fill="white"/>
</svg>
