<svg width="24" height="20" viewBox="0 0 24 20" fill="none" xmlns="http://www.w3.org/2000/svg">
    <path d="M24 1C24 0.4 23.6 0 23 0H1C0.4 0 0 0.4 0 1V3C0 3.6 0.4 4 1 4H23C23.6 4 24 3.6 24 3V1Z" fill="#FDAD43"/>
    <path d="M24 9C24 8.4 23.6 8 23 8H1C0.4 8 0 8.4 0 9V11C0 11.6 0.4 12 1 12H23C23.6 12 24 11.6 24 11V9Z" fill="#FDAD43"/>
    <path d="M24 17C24 16.4 23.7333 16 23.3333 16H8.66667C8.26667 16 8 16.4 8 17V19C8 19.6 8.26667 20 8.66667 20H23.3333C23.7333 20 24 19.6 24 19V17Z" fill="#FDAD43"/>
</svg>
