<svg width="25" height="20" viewBox="0 0 25 20" fill="none" xmlns="http://www.w3.org/2000/svg">
<path d="M24.0508 1C24.0508 0.4 23.6523 0 23.0547 0H1.14062C0.542969 0 0.144531 0.4 0.144531 1V3C0.144531 3.6 0.542969 4 1.14062 4H23.0547C23.6523 4 24.0508 3.6 24.0508 3V1Z" fill="#FDAD43"/>
<path d="M24.0508 9C24.0508 8.4 23.6523 8 23.0547 8H1.14062C0.542969 8 0.144531 8.4 0.144531 9V11C0.144531 11.6 0.542969 12 1.14062 12H23.0547C23.6523 12 24.0508 11.6 24.0508 11V9Z" fill="#FDAD43"/>
<path d="M24.0508 17C24.0508 16.4 23.7852 16 23.3867 16H8.77734C8.37891 16 8.11328 16.4 8.11328 17V19C8.11328 19.6 8.37891 20 8.77734 20H23.3867C23.7852 20 24.0508 19.6 24.0508 19V17Z" fill="#FDAD43"/>
</svg>
