<svg class="air-home" width="13" height="17" viewBox="0 0 13 10" fill="none" xmlns="http://www.w3.org/2000/svg">
    <style>
        .air-home {
        cursor: pointer;
        }
        .air-home path {
        cursor: pointer;
        -webkit-transition: 0.3s all;
        -o-transition: 0.3s all;
        transition: 0.3s all;
        }
        .air-home:hover path, a.mean__center-logo-a:hover .air-home path {
        fill: #CAC338;
        }
    </style>
    <path d="M6.30678 2.01868L1.82525 5.71322C1.82525 5.71844 1.82393 5.72611 1.82131 5.73656C1.81875 5.74694 1.81738 5.75447 1.81738 5.75982V9.50094C1.81738 9.63602 1.86677 9.75308 1.96551 9.85165C2.06422 9.95029 2.18112 9.99992 2.31622 9.99992H5.30904V7.00693H7.30454V10H10.2973C10.4324 10 10.5495 9.9505 10.648 9.85165C10.7468 9.75319 10.7963 9.63604 10.7963 9.50094V5.75982C10.7963 5.73907 10.7935 5.7234 10.7885 5.71322L6.30678 2.01868Z"
          fill="#2E75B3"/>
    <path d="M12.5026 4.8714L10.7957 3.45287V0.272857C10.7957 0.200159 10.7724 0.140373 10.7255 0.0935821C10.679 0.0468457 10.6192 0.0234774 10.5463 0.0234774H9.04987C8.97709 0.0234774 8.91734 0.0468457 8.87052 0.0935821C8.82381 0.140373 8.80047 0.200186 8.80047 0.272857V1.79269L6.89875 0.202643C6.73266 0.0675385 6.53517 0 6.30652 0C6.07788 0 5.88043 0.0675385 5.71418 0.202643L0.110046 4.8714C0.0580955 4.9129 0.0296224 4.96875 0.0243263 5.03891C0.0190575 5.10901 0.0372116 5.17025 0.0788429 5.22217L0.562067 5.79895C0.603699 5.84569 0.658188 5.87427 0.725754 5.88472C0.788133 5.88997 0.850511 5.87173 0.91289 5.83018L6.30635 1.33283L11.6999 5.83015C11.7415 5.86641 11.796 5.88451 11.8636 5.88451H11.887C11.9544 5.87424 12.0088 5.84547 12.0507 5.79884L12.5339 5.22214C12.5755 5.17011 12.5937 5.10899 12.5883 5.0388C12.583 4.96883 12.5544 4.91298 12.5026 4.8714Z"
          fill="#2E75B3"/>
</svg>
