<svg width="20" height="17" viewBox="0 0 20 17" fill="none" xmlns="http://www.w3.org/2000/svg">
<path d="M18.8788 0.438468C18.6446 0.155688 18.2938 0 17.8909 0C17.6719 0 17.4399 0.0454932 17.2014 0.135469L0.970243 6.25221C0.108872 6.57673 -0.00713824 7.06373 0.00032268 7.32513C0.0077836 7.58654 0.151589 8.06631 1.03022 8.3423C1.03549 8.34389 1.04076 8.34548 1.04602 8.34693L4.4128 9.2981L6.23356 14.4381C6.48182 15.1388 7.03905 15.5741 7.68801 15.5741C8.09719 15.5741 8.49964 15.4049 8.85191 15.0848L10.9344 13.1919L13.9549 15.5929C13.9552 15.5932 13.9556 15.5933 13.9559 15.5936L13.9846 15.6165C13.9872 15.6185 13.99 15.6206 13.9926 15.6227C14.3284 15.8797 14.6948 16.0155 15.0528 16.0156H15.053C15.7524 16.0156 16.3093 15.5045 16.4716 14.7137L19.131 1.74968C19.2378 1.22933 19.1483 0.763709 18.8788 0.438468ZM5.53911 9.11742L12.0347 5.84148L7.9901 10.0842C7.92383 10.1537 7.87687 10.2387 7.85376 10.3313L7.07387 13.45L5.53911 9.11742ZM8.09075 14.2688C8.06383 14.2933 8.03677 14.3151 8.0097 14.3351L8.73327 11.4421L10.0495 12.4884L8.09075 14.2688ZM18.0299 1.52944L15.3704 14.4936C15.3448 14.6176 15.263 14.9063 15.0528 14.9063C14.949 14.9063 14.8185 14.8504 14.6849 14.7489L11.2622 12.0283C11.2618 12.0278 11.2612 12.0274 11.2606 12.0271L9.22408 10.4081L15.073 4.27261C15.2603 4.07619 15.2772 3.77536 15.1132 3.55959C14.9491 3.34383 14.6517 3.27595 14.4084 3.39871L4.78848 8.25045L1.37591 7.28657L17.6021 1.1717C17.7392 1.12 17.8349 1.10917 17.8909 1.10917C17.9253 1.10917 17.9864 1.11321 18.0091 1.1408C18.0389 1.17676 18.077 1.29937 18.0299 1.52944Z" fill="#E6BC5E"/>
<path d="M18.8788 0.438468C18.6446 0.155688 18.2938 0 17.8909 0C17.6719 0 17.4399 0.0454932 17.2014 0.135469L0.970243 6.25221C0.108872 6.57673 -0.00713824 7.06373 0.00032268 7.32513C0.0077836 7.58654 0.151589 8.06631 1.03022 8.3423C1.03549 8.34389 1.04076 8.34548 1.04602 8.34693L4.4128 9.2981L6.23356 14.4381C6.48182 15.1388 7.03905 15.5741 7.68801 15.5741C8.09719 15.5741 8.49964 15.4049 8.85191 15.0848L10.9344 13.1919L13.9549 15.5929C13.9552 15.5932 13.9556 15.5933 13.9559 15.5936L13.9846 15.6165C13.9872 15.6185 13.99 15.6206 13.9926 15.6227C14.3284 15.8797 14.6948 16.0155 15.0528 16.0156H15.053C15.7524 16.0156 16.3093 15.5045 16.4716 14.7137L19.131 1.74968C19.2378 1.22933 19.1483 0.763709 18.8788 0.438468ZM5.53911 9.11742L12.0347 5.84148L7.9901 10.0842C7.92383 10.1537 7.87687 10.2387 7.85376 10.3313L7.07387 13.45L5.53911 9.11742ZM8.09075 14.2688C8.06383 14.2933 8.03677 14.3151 8.0097 14.3351L8.73327 11.4421L10.0495 12.4884L8.09075 14.2688ZM18.0299 1.52944L15.3704 14.4936C15.3448 14.6176 15.263 14.9063 15.0528 14.9063C14.949 14.9063 14.8185 14.8504 14.6849 14.7489L11.2622 12.0283C11.2618 12.0278 11.2612 12.0274 11.2606 12.0271L9.22408 10.4081L15.073 4.27261C15.2603 4.07619 15.2772 3.77536 15.1132 3.55959C14.9491 3.34383 14.6517 3.27595 14.4084 3.39871L4.78848 8.25045L1.37591 7.28657L17.6021 1.1717C17.7392 1.12 17.8349 1.10917 17.8909 1.10917C17.9253 1.10917 17.9864 1.11321 18.0091 1.1408C18.0389 1.17676 18.077 1.29937 18.0299 1.52944Z" fill="#039BE5" fill-opacity="0.8"/>
</svg>
