<svg width="17" height="17" viewBox="0 0 17 17" fill="none" xmlns="http://www.w3.org/2000/svg">
<path d="M14.7052 2.31242C13.1594 0.770806 11.1843 0 9.03732 0C4.65757 0 1.05072 3.51145 1.05072 7.965C1.05072 9.33532 1.39423 10.7913 2.08125 11.9903L0.964844 16.0156L5.17284 14.9879C6.28924 15.6731 7.66328 15.93 8.95144 15.93C13.3312 15.93 16.938 12.4185 16.938 7.965C17.0239 5.90951 16.1651 3.85403 14.7052 2.31242ZM9.03732 14.6453C7.83504 14.6453 6.63275 14.3027 5.60222 13.7032L5.43047 13.5319L2.85415 14.2171L3.54117 11.819L3.36941 11.6477C2.76827 10.5344 2.42476 9.33532 2.42476 8.05064C2.33888 4.45355 5.34459 1.37032 9.03732 1.37032C10.8407 1.37032 12.4724 2.05548 13.7606 3.34016C14.9629 4.53919 15.7358 6.25209 15.7358 8.05064C15.7358 11.6477 12.73 14.6453 9.03732 14.6453ZM12.73 9.6779C12.5583 9.59225 11.5278 9.07838 11.356 8.99274C11.1843 8.90709 11.0125 8.90709 10.9266 9.07838C10.7549 9.24967 10.4114 9.76355 10.2396 9.84919C10.0678 10.0205 10.0678 10.0205 9.81022 9.93484C9.55258 9.84919 9.03732 9.59226 8.17855 8.90709C7.5774 8.39322 7.14802 7.70806 7.06214 7.53677C6.89039 7.36548 7.06214 7.19419 7.14802 7.10855C7.23389 7.0229 7.31977 6.93726 7.49153 6.76597C7.5774 6.68032 7.66328 6.59468 7.66328 6.50903C7.74916 6.33774 7.74916 6.33774 7.66328 6.16645C7.66328 5.99516 7.23389 5.05306 7.06214 4.62484C6.89039 4.28226 6.71863 4.28226 6.63275 4.28226C6.461 4.28226 6.461 4.28226 6.28924 4.28226C6.11749 4.28226 5.85986 4.3679 5.6881 4.53919C5.51635 4.71048 5.00108 5.22435 5.00108 6.2521C5.00108 7.27984 5.77398 8.22193 5.77398 8.30758C5.85986 8.47887 7.14802 10.4487 9.20907 11.3052C9.63846 11.4764 10.0678 11.6477 10.3255 11.7334C10.7549 11.9047 11.2701 11.9047 11.5278 11.819C11.8713 11.7334 12.73 11.3052 12.9018 10.8769C13.0736 10.4487 13.0736 10.0205 13.0736 9.93484C12.9877 9.84919 12.8159 9.76355 12.73 9.6779Z" fill="#E6BC5E" fill-opacity="0.8"/>
</svg>
